<svg width="339" height="153" viewBox="0 0 339 153" fill="none" xmlns="http://www.w3.org/2000/svg">
<path d="M186.416 93.4C195.504 93.4 200.368 100.824 200.368 110.424C200.368 119.96 195.12 127.64 186.288 127.64C181.936 127.64 178.544 125.976 176.304 122.776L176.432 126.296C176.432 126.808 176.176 127 175.728 127H169.328C168.88 127 168.624 126.808 168.624 126.296L168.88 103.384L168.624 82.904C168.624 82.392 168.88 82.2 169.328 82.2H175.792C176.24 82.2 176.496 82.392 176.496 82.904L176.368 98.456C178.608 95.256 182 93.4 186.416 93.4ZM184.176 122.328C189.808 122.456 192.56 117.848 192.56 110.808C192.56 103.256 189.744 98.648 184.304 98.712C179.184 98.712 176.176 102.552 176.112 110.168C176.048 117.912 178.928 122.264 184.176 122.328ZM213.71 110.488L213.774 126.296C213.774 126.808 213.518 127 213.07 127H206.67C206.222 127 205.966 126.808 205.966 126.296L206.222 110.296L205.966 94.744C205.966 94.232 206.222 94.04 206.67 94.04H213.006C213.454 94.04 213.71 94.232 213.71 94.744L213.454 99.992C215.95 95.832 220.238 93.72 224.975 93.72C225.486 93.72 226.062 93.784 226.639 93.912C227.022 93.976 227.215 94.296 227.215 94.68V99.032C227.215 99.48 226.958 99.736 226.447 99.672C226.062 99.608 225.55 99.608 225.102 99.608C218.958 99.608 214.094 103.128 213.71 110.488ZM239.297 83.032C239.745 83.032 240.001 83.288 240.001 83.736V89.752C240.001 90.2 239.745 90.456 239.297 90.456H232.897C232.449 90.456 232.193 90.2 232.193 89.752V83.736C232.193 83.288 232.449 83.032 232.897 83.032H239.297ZM239.809 110.232L240.065 126.296C240.065 126.808 239.809 127 239.361 127H232.833C232.385 127 232.129 126.808 232.129 126.296L232.385 110.232L232.129 94.744C232.129 94.232 232.385 94.04 232.833 94.04H239.361C239.809 94.04 240.065 94.232 240.065 94.744L239.809 110.232ZM269.877 94.744C269.877 94.232 270.133 94.04 270.581 94.04H276.853C277.301 94.04 277.557 94.232 277.557 94.744L277.365 108.888L277.493 125.336C277.621 134.296 272.181 139.672 262.005 139.672C253.941 139.736 247.733 136.472 247.093 129.432C247.029 128.984 247.285 128.728 247.733 128.728H254.005C254.389 128.728 254.645 128.984 254.709 129.368C255.221 132.76 257.973 134.488 262.197 134.488C267.061 134.488 270.261 131.672 270.261 125.272V121.688C268.085 124.952 264.757 126.808 260.405 126.808C250.933 126.808 245.941 119.704 245.941 110.36C245.941 101.08 251.189 93.528 260.085 93.528C264.437 93.528 267.829 95.192 270.005 98.328L269.877 94.744ZM270.197 110.616C270.261 103 267.317 98.712 262.133 98.648C256.565 98.52 253.749 102.936 253.749 110.104C253.749 117.656 256.629 121.816 262.069 121.752C267.125 121.688 270.133 118.104 270.197 110.616ZM313.497 107.16L313.433 114.008L313.689 126.296C313.689 126.808 313.433 127 312.985 127H306.457C306.009 127 305.753 126.808 305.753 126.296L306.009 114.072L305.945 106.392C305.881 101.208 303.385 98.968 300.057 98.968C296.217 98.968 292.569 102.104 291.609 107.8L291.865 126.296C291.865 126.808 291.609 127 291.161 127H284.825C284.377 127 284.121 126.808 284.121 126.296L284.441 104.408L284.121 82.904C284.121 82.392 284.377 82.2 284.825 82.2H291.161C291.609 82.2 291.865 82.392 291.865 82.904L291.609 98.712C293.849 95.448 297.305 93.272 302.041 93.272C309.273 93.272 313.689 97.624 313.497 107.16ZM329.704 94.04H337C337.448 94.04 337.704 94.296 337.704 94.744V98.84C337.704 99.288 337.448 99.544 337 99.544H329.704V117.464C329.704 120.92 331.112 122.008 333.544 122.008C334.888 122.008 335.976 121.816 336.936 121.56C337.384 121.496 337.704 121.688 337.704 122.2V125.912C337.704 126.296 337.512 126.616 337.128 126.744C335.528 127.192 333.672 127.576 331.944 127.576C326.76 127.576 322.024 125.016 322.024 117.656L322.088 99.544H318.504C318.056 99.544 317.8 99.288 317.8 98.84V94.744C317.8 94.296 318.056 94.04 318.504 94.04H322.088L321.96 86.488C321.96 85.976 322.216 85.784 322.664 85.784H329.128C329.576 85.784 329.832 85.976 329.832 86.488L329.704 94.04Z" fill="#F98948"/>
<path d="M183.152 63.704C174.192 63.704 167.984 59.928 167.6 52.44C167.6 51.992 167.856 51.736 168.304 51.736H174.32C174.768 51.736 175.024 51.992 175.024 52.44C175.28 56.856 178.096 58.84 183.28 58.84C187.568 58.84 190.256 57.048 190.256 53.912C190.256 46.296 168.304 52.888 168.304 39.32C168.304 32.792 173.68 29.336 182.064 29.336C190.128 29.336 195.824 32.536 196.4 39.384C196.464 39.832 196.208 40.088 195.76 40.088H189.872C189.424 40.088 189.232 39.832 189.168 39.448C188.656 35.928 186.224 34.072 181.936 34.072C178.096 34.072 175.664 35.544 175.664 38.808C175.664 46.168 197.552 39.384 197.552 53.272C197.552 59.928 191.344 63.704 183.152 63.704ZM226.133 34.264L226.005 30.744C226.005 30.232 226.261 30.04 226.709 30.04H233.109C233.557 30.04 233.813 30.232 233.813 30.744L233.493 46.36L233.813 62.296C233.813 62.808 233.557 63 233.109 63H226.709C226.261 63 226.005 62.808 226.005 62.296L226.133 58.456C223.893 61.72 220.437 63.64 216.021 63.64C206.933 63.64 202.069 56.216 202.069 46.616C202.069 37.08 207.317 29.4 216.149 29.4C220.501 29.4 223.893 31.064 226.133 34.264ZM218.069 58.392C223.253 58.392 226.261 54.488 226.325 46.808C226.389 39 223.509 34.648 218.261 34.584C212.629 34.52 209.877 39 209.877 46.168C209.877 53.784 212.693 58.456 218.069 58.392ZM263.347 30.744C263.347 30.232 263.603 30.04 264.051 30.04H270.323C270.771 30.04 271.028 30.232 271.028 30.744L270.835 44.888L270.964 61.336C271.091 70.296 265.651 75.672 255.475 75.672C247.411 75.736 241.203 72.472 240.563 65.432C240.499 64.984 240.755 64.728 241.203 64.728H247.475C247.859 64.728 248.115 64.984 248.179 65.368C248.691 68.76 251.443 70.488 255.667 70.488C260.531 70.488 263.731 67.672 263.731 61.272V57.688C261.555 60.952 258.227 62.808 253.875 62.808C244.403 62.808 239.411 55.704 239.411 46.36C239.411 37.08 244.659 29.528 253.555 29.528C257.907 29.528 261.299 31.192 263.475 34.328L263.347 30.744ZM263.667 46.616C263.731 39 260.787 34.712 255.603 34.648C250.035 34.52 247.219 38.936 247.219 46.104C247.219 53.656 250.099 57.816 255.539 57.752C260.595 57.688 263.603 54.104 263.667 46.616ZM293.014 58.584C297.046 58.584 299.67 56.536 300.63 52.312C300.694 51.864 301.014 51.672 301.398 51.672H307.35C307.798 51.672 308.118 51.928 307.99 52.44C307.03 58.776 301.718 63.768 292.95 63.768C282.262 63.768 276.566 56.664 276.566 46.616C276.566 36.248 282.582 29.272 292.694 29.272C302.806 29.272 308.566 35.992 308.822 47.128C308.822 47.576 308.566 47.832 308.118 47.832H284.31C284.63 55.064 287.51 58.584 293.014 58.584ZM292.694 34.392C288.022 34.392 285.334 37.336 284.566 42.84H300.502C300.246 38.36 297.75 34.392 292.694 34.392Z" fill="#2C6E49"/>
<path d="M126.723 86.2571C119.421 84.1441 116 76.0012 116 76.0012C116 76.0012 118.604 67.8697 126.723 65.7452C134.843 63.6207 152 76.0012 152 76.0012C152 76.0012 134.026 88.3702 126.723 86.2571Z" fill="#F98948"/>
<path d="M25.2766 65.7429C32.5787 67.8559 36 75.9988 36 75.9988C36 75.9988 33.3957 84.1303 25.2766 86.2548C17.1574 88.3793 0 75.9988 0 75.9988C0 75.9988 17.9745 63.6298 25.2766 65.7429Z" fill="#F98948"/>
<path d="M34.045 104.254C40.7025 100.585 48.8797 103.924 48.8797 103.924C48.8797 103.924 52.788 111.515 48.5491 118.758C44.3103 126.002 23.4238 129.38 23.4238 129.38C23.4238 129.38 27.3875 107.924 34.045 104.254Z" fill="#F98948"/>
<path d="M104.754 118.76C101.085 112.103 104.424 103.926 104.424 103.926C104.424 103.926 112.015 100.017 119.258 104.256C126.502 108.495 129.88 129.381 129.88 129.381C129.88 129.381 108.424 125.418 104.754 118.76Z" fill="#F98948"/>
<path d="M65.2429 127.223C67.3559 119.921 75.4988 116.5 75.4988 116.5C75.4988 116.5 83.6303 119.104 85.7548 127.223C87.8793 135.343 75.4988 152.5 75.4988 152.5C75.4988 152.5 63.1298 134.526 65.2429 127.223Z" fill="#F98948"/>
<path d="M85.7571 25.2766C83.6441 32.5787 75.5012 36 75.5012 36C75.5012 36 67.3697 33.3957 65.2452 25.2766C63.1207 17.1574 75.5012 0 75.5012 0C75.5012 0 87.8702 17.9745 85.7571 25.2766Z" fill="#F98948"/>
<path d="M48.5507 33.545C52.22 40.2025 48.8813 48.3797 48.8813 48.3797C48.8813 48.3797 41.29 52.288 34.0466 48.0491C26.8033 43.8103 23.4254 22.9238 23.4254 22.9238C23.4254 22.9238 44.8815 26.8875 48.5507 33.545Z" fill="#F98948"/>
<path d="M118.26 48.0506C111.603 51.7199 103.425 48.3812 103.425 48.3812C103.425 48.3812 99.5171 40.7898 103.756 33.5465C107.995 26.3032 128.881 22.9253 128.881 22.9253C128.881 22.9253 124.918 44.3814 118.26 48.0506Z" fill="#2C6E49"/>
<circle cx="76" cy="75" r="32" fill="#F98948"/>
</svg>
