<svg width="127" height="135" viewBox="0 0 127 135" fill="none" xmlns="http://www.w3.org/2000/svg">
<g filter="url(#filter0_i_88_247)">
<path fill-rule="evenodd" clip-rule="evenodd" d="M64.437 127C83.5452 112.412 95.874 89.396 95.874 63.5C95.874 37.604 83.5452 14.5875 64.437 0C45.3288 14.5875 33 37.604 33 63.5C33 89.396 45.3288 112.412 64.437 127Z" fill="#2A9D90"/>
</g>
<g filter="url(#filter1_d_88_247)">
<path fill-rule="evenodd" clip-rule="evenodd" d="M64.4 121.931V126.688L64.4 126.688V104.014C64.5009 103.928 64.5984 103.836 64.6922 103.739L88.2814 79.2451C84.941 95.9434 76.3918 110.761 64.4 121.931ZM89.7805 66.4489C89.8161 65.4696 89.834 64.4857 89.834 63.4977C89.834 59.2697 89.5054 55.1185 88.8722 51.0682L64.4 76.479V92.5097L88.7581 67.2173C89.0642 66.8995 89.4101 66.6433 89.7805 66.4489ZM86.2082 42.3017L64.4 64.9463V47.6089L82.1179 29.2115C84.0285 33.2234 85.6142 37.42 86.8411 41.7671C86.6165 41.92 86.4041 42.0982 86.2082 42.3017ZM78.134 21.8661C74.3307 15.6543 69.7018 10.0028 64.4 5.06428V0.307394L64.4 0.307388V36.0762L77.7393 22.2253C77.8645 22.0952 77.9965 21.9755 78.134 21.8661ZM64.2001 0.153279C64.1335 0.102083 64.0668 0.05099 64 0V0.307729C64.0666 0.256142 64.1333 0.204659 64.2001 0.153279ZM64 126.636C64.0778 126.696 64.1558 126.756 64.2339 126.816C64.156 126.876 64.0781 126.936 64 126.995V126.636Z" fill="#88D8B0"/>
</g>
<defs>
<filter id="filter0_i_88_247" x="33" y="0" width="62.874" height="131" filterUnits="userSpaceOnUse" color-interpolation-filters="sRGB">
<feFlood flood-opacity="0" result="BackgroundImageFix"/>
<feBlend mode="normal" in="SourceGraphic" in2="BackgroundImageFix" result="shape"/>
<feColorMatrix in="SourceAlpha" type="matrix" values="0 0 0 0 0 0 0 0 0 0 0 0 0 0 0 0 0 0 127 0" result="hardAlpha"/>
<feOffset dy="4"/>
<feGaussianBlur stdDeviation="5"/>
<feComposite in2="hardAlpha" operator="arithmetic" k2="-1" k3="1"/>
<feColorMatrix type="matrix" values="0 0 0 0 0.152941 0 0 0 0 0.278431 0 0 0 0 0.329412 0 0 0 0.5 0"/>
<feBlend mode="normal" in2="shape" result="effect1_innerShadow_88_247"/>
</filter>
<filter id="filter1_d_88_247" x="60" y="0" width="33.834" height="134.995" filterUnits="userSpaceOnUse" color-interpolation-filters="sRGB">
<feFlood flood-opacity="0" result="BackgroundImageFix"/>
<feColorMatrix in="SourceAlpha" type="matrix" values="0 0 0 0 0 0 0 0 0 0 0 0 0 0 0 0 0 0 127 0" result="hardAlpha"/>
<feOffset dy="4"/>
<feGaussianBlur stdDeviation="2"/>
<feComposite in2="hardAlpha" operator="out"/>
<feColorMatrix type="matrix" values="0 0 0 0 0 0 0 0 0 0 0 0 0 0 0 0 0 0 0.25 0"/>
<feBlend mode="normal" in2="BackgroundImageFix" result="effect1_dropShadow_88_247"/>
<feBlend mode="normal" in="SourceGraphic" in2="effect1_dropShadow_88_247" result="shape"/>
</filter>
</defs>
</svg>
