<svg width="152" height="153" viewBox="0 0 152 153" fill="none" xmlns="http://www.w3.org/2000/svg">
<path d="M126.723 86.2571C119.421 84.1441 116 76.0012 116 76.0012C116 76.0012 118.604 67.8697 126.723 65.7452C134.843 63.6207 152 76.0012 152 76.0012C152 76.0012 134.026 88.3702 126.723 86.2571Z" fill="#F98948"/>
<path d="M25.2766 65.7429C32.5787 67.8559 36 75.9988 36 75.9988C36 75.9988 33.3957 84.1303 25.2766 86.2548C17.1574 88.3793 0 75.9988 0 75.9988C0 75.9988 17.9745 63.6298 25.2766 65.7429Z" fill="#F98948"/>
<path d="M34.045 104.254C40.7025 100.585 48.8797 103.924 48.8797 103.924C48.8797 103.924 52.788 111.515 48.5491 118.758C44.3103 126.002 23.4238 129.38 23.4238 129.38C23.4238 129.38 27.3875 107.924 34.045 104.254Z" fill="#F98948"/>
<path d="M104.754 118.76C101.085 112.103 104.424 103.926 104.424 103.926C104.424 103.926 112.015 100.017 119.258 104.256C126.502 108.495 129.88 129.381 129.88 129.381C129.88 129.381 108.424 125.418 104.754 118.76Z" fill="#F98948"/>
<path d="M65.2429 127.223C67.3559 119.921 75.4988 116.5 75.4988 116.5C75.4988 116.5 83.6303 119.104 85.7548 127.223C87.8793 135.343 75.4988 152.5 75.4988 152.5C75.4988 152.5 63.1298 134.526 65.2429 127.223Z" fill="#F98948"/>
<path d="M85.7571 25.2766C83.6441 32.5787 75.5012 36 75.5012 36C75.5012 36 67.3697 33.3957 65.2452 25.2766C63.1207 17.1574 75.5012 0 75.5012 0C75.5012 0 87.8702 17.9745 85.7571 25.2766Z" fill="#F98948"/>
<path d="M48.5507 33.545C52.22 40.2025 48.8813 48.3797 48.8813 48.3797C48.8813 48.3797 41.29 52.288 34.0466 48.0491C26.8033 43.8103 23.4254 22.9238 23.4254 22.9238C23.4254 22.9238 44.8815 26.8875 48.5507 33.545Z" fill="#F98948"/>
<path d="M118.26 48.0506C111.603 51.7199 103.425 48.3812 103.425 48.3812C103.425 48.3812 99.5171 40.7898 103.756 33.5465C107.995 26.3032 128.881 22.9253 128.881 22.9253C128.881 22.9253 124.918 44.3814 118.26 48.0506Z" fill="#2C6E49"/>
<circle cx="76" cy="75" r="32" fill="#F98948"/>
</svg>
