<svg width="683" height="193" viewBox="0 0 683 193" fill="none" xmlns="http://www.w3.org/2000/svg">
<g filter="url(#filter0_i_86_480)">
<path fill-rule="evenodd" clip-rule="evenodd" d="M31.437 160C50.5452 145.412 62.874 122.396 62.874 96.5C62.874 70.604 50.5452 47.5875 31.437 33C12.3288 47.5875 0 70.604 0 96.5C0 122.396 12.3288 145.412 31.437 160Z" fill="#2A9D90"/>
</g>
<g filter="url(#filter1_d_86_480)">
<path fill-rule="evenodd" clip-rule="evenodd" d="M31.4 154.931V159.688L31.4 159.688L31.4 137.014C31.5009 136.928 31.5984 136.836 31.6922 136.739L55.2814 112.245C51.941 128.943 43.3918 143.761 31.4 154.931ZM56.7805 99.4489C56.8161 98.4696 56.834 97.4857 56.834 96.4977C56.834 92.2697 56.5054 88.1185 55.8722 84.0682L31.4 109.479V125.51L55.7581 100.217C56.0642 99.8995 56.4101 99.6433 56.7805 99.4489ZM53.2082 75.3017L31.4 97.9463V80.6089L49.1179 62.2115C51.0285 66.2234 52.6142 70.42 53.8411 74.7671C53.6165 74.92 53.4041 75.0982 53.2082 75.3017ZM45.134 54.8661C41.3307 48.6543 36.7018 43.0028 31.4 38.0643V33.3074L31.4 33.3074L31.4 69.0762L44.7393 55.2253C44.8645 55.0952 44.9965 54.9755 45.134 54.8661ZM31.2001 33.1533C31.1335 33.1021 31.0668 33.051 31 33V33.3077C31.0666 33.2561 31.1333 33.2047 31.2001 33.1533ZM31 159.636C31.0778 159.696 31.1558 159.756 31.2339 159.816C31.156 159.876 31.0781 159.936 31 159.995V159.636Z" fill="#88D8B0"/>
</g>
<g filter="url(#filter2_i_86_480)">
<path d="M120.86 120.8C120.86 118.467 120.02 116.553 118.34 115.06C116.66 113.473 114.467 112.073 111.76 110.86C109.147 109.553 106.347 108.247 103.36 106.94C100.467 105.633 97.6667 104.14 94.96 102.46C92.3467 100.687 90.2 98.4933 88.52 95.88C86.84 93.1733 86 89.9067 86 86.08C86 86.08 86.3733 86.08 87.12 86.08C87.96 86.08 88.9867 86.08 90.2 86.08C91.5067 86.08 92.7667 86.08 93.98 86.08C95.1933 86.08 96.22 86.08 97.06 86.08C97.9 86.08 98.32 86.08 98.32 86.08C98.32 88.4133 99.16 90.3733 100.84 91.96C102.52 93.4533 104.667 94.8067 107.28 96.02C109.987 97.2333 112.833 98.54 115.82 99.94C118.807 101.247 121.607 102.787 124.22 104.56C126.833 106.333 128.98 108.527 130.66 111.14C132.433 113.66 133.32 116.88 133.32 120.8C133.32 120.8 132.9 120.8 132.06 120.8C131.22 120.8 130.147 120.8 128.84 120.8C127.627 120.8 126.413 120.8 125.2 120.8C123.987 120.8 122.96 120.8 122.12 120.8C121.28 120.8 120.86 120.8 120.86 120.8ZM108.96 141.1V130.04C112.413 130.04 115.26 129.2 117.5 127.52C119.74 125.747 120.86 123.507 120.86 120.8H133.32C133.32 124.72 132.247 128.22 130.1 131.3C128.047 134.38 125.2 136.807 121.56 138.58C117.92 140.26 113.72 141.1 108.96 141.1ZM86 86.08C86 82.2533 86.9333 78.8467 88.8 75.86C90.76 72.78 93.4667 70.4 96.92 68.72C100.373 66.9467 104.2 66.06 108.4 66.06V77.12C105.507 77.12 103.08 77.96 101.12 79.64C99.2533 81.32 98.32 83.4667 98.32 86.08H86ZM95.66 117.86C96.1267 121.967 97.62 125.047 100.14 127.1C102.66 129.06 105.6 130.04 108.96 130.04V141.1C104.667 141.1 100.7 140.213 97.06 138.44C93.42 136.667 90.4333 134.193 88.1 131.02C85.86 127.847 84.46 124.253 83.9 120.24L95.66 117.86ZM121.56 89.3C121.093 85.1 119.6 82.02 117.08 80.06C114.653 78.1 111.76 77.12 108.4 77.12V66.06C112.787 66.06 116.753 66.9467 120.3 68.72C123.847 70.4933 126.787 72.9667 129.12 76.14C131.453 79.22 132.9 82.8133 133.46 86.92L121.56 89.3ZM186.926 139V90.84H199.666V139H186.926ZM169.846 141.1L170.826 130.6C174.186 130.6 177.032 129.76 179.366 128.08C181.792 126.4 183.659 123.927 184.966 120.66C186.272 117.393 186.926 113.52 186.926 109.04L193.226 108.76C193.226 115.107 192.199 120.707 190.146 125.56C188.092 130.413 185.292 134.24 181.746 137.04C178.292 139.747 174.326 141.1 169.846 141.1ZM169.846 141.1C165.646 141.1 161.819 140.12 158.366 138.16C154.912 136.2 152.159 133.54 150.106 130.18C148.052 126.727 147.026 122.9 147.026 118.7L159.066 118.28C159.066 121.827 160.232 124.767 162.566 127.1C164.992 129.433 167.746 130.6 170.826 130.6L169.846 141.1ZM147.026 118.7C147.026 114.313 148.099 110.487 150.246 107.22C152.486 103.86 155.472 101.2 159.206 99.24C162.939 97.28 167.186 96.3 171.946 96.3L172.646 106.1C168.726 106.1 165.459 107.267 162.846 109.6C160.326 111.84 159.066 114.733 159.066 118.28L147.026 118.7ZM172.646 106.1L171.946 96.3H193.506V106.1H172.646ZM186.926 109.04V90.98H193.226V108.76L186.926 109.04ZM199.666 91.12H186.926C186.926 87.0133 185.666 83.6533 183.146 81.04C180.719 78.4267 177.546 77.12 173.626 77.12V66.2C178.666 66.2 183.099 67.2733 186.926 69.42C190.846 71.5667 193.926 74.5533 196.166 78.38C198.499 82.1133 199.666 86.36 199.666 91.12ZM160.466 89.44L148.706 87.06C149.266 82.86 150.666 79.22 152.906 76.14C155.239 73.06 158.179 70.6333 161.726 68.86C165.366 67.0867 169.379 66.2 173.766 66.2V77.12C170.312 77.12 167.326 78.1467 164.806 80.2C162.379 82.16 160.932 85.24 160.466 89.44ZM253.97 141.52V68.3H266.71V141.52H253.97ZM214.63 114.64V90.84H227.37V114.64H214.63ZM227.37 90.84H214.63C214.63 86.1733 215.61 81.9733 217.57 78.24C219.53 74.5067 222.19 71.5667 225.55 69.42C229.004 67.2733 232.924 66.2 237.31 66.2L240.53 77.54C236.704 77.54 233.53 78.8 231.01 81.32C228.584 83.7467 227.37 86.92 227.37 90.84ZM259.57 91.12H253.97C253.97 87.1067 252.71 83.84 250.19 81.32C247.67 78.8 244.45 77.54 240.53 77.54L237.31 66.2C241.51 66.2 245.29 67.2733 248.65 69.42C252.104 71.5667 254.764 74.5533 256.63 78.38C258.59 82.1133 259.57 86.36 259.57 91.12ZM227.37 114.64C227.37 118.56 228.584 121.78 231.01 124.3C233.53 126.727 236.704 127.94 240.53 127.94L237.31 139.28C232.924 139.28 229.004 138.207 225.55 136.06C222.19 133.913 219.53 130.973 217.57 127.24C215.61 123.507 214.63 119.307 214.63 114.64H227.37ZM259.57 114.22C259.57 118.98 258.59 123.273 256.63 127.1C254.764 130.833 252.104 133.82 248.65 136.06C245.29 138.207 241.51 139.28 237.31 139.28L240.53 127.94C244.45 127.94 247.67 126.68 250.19 124.16C252.71 121.64 253.97 118.327 253.97 114.22H259.57ZM266.71 141.1C266.71 145.86 265.59 150.107 263.35 153.84C261.11 157.667 258.03 160.653 254.11 162.8C250.19 165.04 245.757 166.16 240.81 166.16V155.1C244.637 155.1 247.764 153.747 250.19 151.04C252.71 148.427 253.97 145.113 253.97 141.1H266.71ZM227.51 142.92C227.977 147.027 229.47 150.06 231.99 152.02C234.51 154.073 237.45 155.1 240.81 155.1V166.16C236.517 166.16 232.55 165.273 228.91 163.5C225.27 161.727 222.284 159.253 219.95 156.08C217.71 152.907 216.31 149.313 215.75 145.3L227.51 142.92ZM286.399 107.5V98.4H334.139V107.5H286.399ZM308.099 141.24V130.18H308.799V141.24H308.099ZM282.339 113.94V93.36H295.079V113.94H282.339ZM321.399 98.4V91.12H334.139V98.4H321.399ZM334.139 91.12H321.399C321.399 87.0133 320.139 83.6533 317.619 81.04C315.192 78.4267 312.019 77.12 308.099 77.12V66.2C313.139 66.2 317.572 67.2733 321.399 69.42C325.319 71.5667 328.399 74.5533 330.639 78.38C332.972 82.1133 334.139 86.36 334.139 91.12ZM321.959 118L333.859 120.38C333.299 124.393 331.852 127.987 329.519 131.16C327.186 134.333 324.246 136.807 320.699 138.58C317.152 140.353 313.186 141.24 308.799 141.24V130.18C312.159 130.18 315.052 129.2 317.479 127.24C319.999 125.187 321.492 122.107 321.959 118ZM282.339 93.5C282.339 88.18 283.459 83.5133 285.699 79.5C288.032 75.3933 291.112 72.1733 294.939 69.84C298.859 67.4133 303.292 66.2 308.239 66.2V77.12C304.132 77.12 300.912 78.5667 298.579 81.46C296.246 84.26 295.079 88.2733 295.079 93.5H282.339ZM282.339 113.94H295.079C295.079 119.073 296.246 123.087 298.579 125.98C300.912 128.78 304.132 130.18 308.239 130.18V141.24C303.292 141.24 298.859 140.073 294.939 137.74C291.112 135.313 288.032 132.047 285.699 127.94C283.459 123.833 282.339 119.167 282.339 113.94ZM349.889 68.44V40.3H362.629V68.44H349.889ZM362.629 139H349.889V68.3H362.629V139ZM401.969 116.46H389.229V90.84H401.969V116.46ZM389.229 90.84C389.229 86.92 388.016 83.7467 385.589 81.32C383.162 78.8 380.036 77.54 376.209 77.54L379.429 66.2C383.722 66.2 387.549 67.2733 390.909 69.42C394.362 71.5667 397.069 74.5067 399.029 78.24C400.989 81.9733 401.969 86.1733 401.969 90.84H389.229ZM357.029 91.12C357.029 86.36 358.009 82.1133 359.969 78.38C361.929 74.5533 364.589 71.5667 367.949 69.42C371.309 67.2733 375.136 66.2 379.429 66.2L376.209 77.54C372.196 77.54 368.929 78.8 366.409 81.32C363.889 83.84 362.629 87.1067 362.629 91.12H357.029ZM389.229 116.46H401.969C401.969 121.127 400.989 125.327 399.029 129.06C397.069 132.793 394.362 135.733 390.909 137.88C387.549 140.027 383.722 141.1 379.429 141.1L376.209 129.76C380.036 129.76 383.162 128.547 385.589 126.12C388.016 123.6 389.229 120.38 389.229 116.46ZM357.029 116.04H362.629C362.629 120.147 363.889 123.46 366.409 125.98C368.929 128.5 372.196 129.76 376.209 129.76L379.429 141.1C375.136 141.1 371.309 140.027 367.949 137.88C364.589 135.64 361.929 132.653 359.969 128.92C358.009 125.093 357.029 120.8 357.029 116.04ZM418.998 139V68.3H431.738V139H418.998ZM425.998 91.68C425.998 86.92 426.791 82.6733 428.378 78.94C429.964 75.1133 432.111 72.1267 434.818 69.98C437.618 67.8333 440.698 66.76 444.058 66.76L442.938 78.66C439.671 78.66 436.964 79.92 434.818 82.44C432.764 84.8667 431.738 87.9467 431.738 91.68H425.998ZM451.338 81.88C450.218 80.9467 448.864 80.2 447.278 79.64C445.784 78.9867 444.338 78.66 442.938 78.66L444.058 66.76C446.204 66.76 448.304 67.18 450.358 68.02C452.411 68.7667 454.184 69.84 455.678 71.24L451.338 81.88ZM469.819 139V68.3H482.559V139H469.819ZM476.119 58.92C473.785 58.92 471.825 58.1267 470.239 56.54C468.652 54.9533 467.859 52.9933 467.859 50.66C467.859 48.3267 468.652 46.3667 470.239 44.78C471.825 43.1 473.785 42.26 476.119 42.26C478.452 42.26 480.412 43.1 481.999 44.78C483.679 46.3667 484.519 48.3267 484.519 50.66C484.519 52.9933 483.679 54.9533 481.999 56.54C480.412 58.1267 478.452 58.92 476.119 58.92ZM540.451 141.52V68.3H553.191V141.52H540.451ZM501.111 114.64V90.84H513.851V114.64H501.111ZM513.851 90.84H501.111C501.111 86.1733 502.091 81.9733 504.051 78.24C506.011 74.5067 508.671 71.5667 512.031 69.42C515.484 67.2733 519.404 66.2 523.791 66.2L527.011 77.54C523.184 77.54 520.011 78.8 517.491 81.32C515.064 83.7467 513.851 86.92 513.851 90.84ZM546.051 91.12H540.451C540.451 87.1067 539.191 83.84 536.671 81.32C534.151 78.8 530.931 77.54 527.011 77.54L523.791 66.2C527.991 66.2 531.771 67.2733 535.131 69.42C538.584 71.5667 541.244 74.5533 543.111 78.38C545.071 82.1133 546.051 86.36 546.051 91.12ZM513.851 114.64C513.851 118.56 515.064 121.78 517.491 124.3C520.011 126.727 523.184 127.94 527.011 127.94L523.791 139.28C519.404 139.28 515.484 138.207 512.031 136.06C508.671 133.913 506.011 130.973 504.051 127.24C502.091 123.507 501.111 119.307 501.111 114.64H513.851ZM546.051 114.22C546.051 118.98 545.071 123.273 543.111 127.1C541.244 130.833 538.584 133.82 535.131 136.06C531.771 138.207 527.991 139.28 523.791 139.28L527.011 127.94C530.931 127.94 534.151 126.68 536.671 124.16C539.191 121.64 540.451 118.327 540.451 114.22H546.051ZM553.191 141.1C553.191 145.86 552.071 150.107 549.831 153.84C547.591 157.667 544.511 160.653 540.591 162.8C536.671 165.04 532.238 166.16 527.291 166.16V155.1C531.118 155.1 534.244 153.747 536.671 151.04C539.191 148.427 540.451 145.113 540.451 141.1H553.191ZM513.991 142.92C514.458 147.027 515.951 150.06 518.471 152.02C520.991 154.073 523.931 155.1 527.291 155.1V166.16C522.998 166.16 519.031 165.273 515.391 163.5C511.751 161.727 508.764 159.253 506.431 156.08C504.191 152.907 502.791 149.313 502.231 145.3L513.991 142.92ZM572.32 139V68.3H585.06V139H572.32ZM611.66 139V90.84H624.4V139H611.66ZM611.66 90.84C611.66 86.92 610.446 83.7467 608.02 81.32C605.593 78.8 602.466 77.54 598.64 77.54L601.86 66.2C606.153 66.2 609.98 67.2733 613.34 69.42C616.793 71.5667 619.5 74.5067 621.46 78.24C623.42 81.9733 624.4 86.1733 624.4 90.84H611.66ZM579.46 91.12C579.46 86.36 580.44 82.1133 582.4 78.38C584.36 74.5533 587.02 71.5667 590.38 69.42C593.74 67.2733 597.566 66.2 601.86 66.2L598.64 77.54C594.626 77.54 591.36 78.8 588.84 81.32C586.32 83.84 585.06 87.1067 585.06 91.12H579.46ZM572.32 139V38.2H585.06V139H572.32ZM646.048 117.58V40.16L658.788 40.3V117.58H646.048ZM637.928 78.8V68.3H676.428V78.8H637.928ZM646.048 117.44H658.788C658.788 120.147 659.161 122.433 659.908 124.3C660.655 126.167 661.728 127.613 663.128 128.64C664.528 129.573 666.208 130.04 668.168 130.04L667.048 141.1C660.515 141.1 655.381 139.047 651.648 134.94C647.915 130.74 646.048 124.907 646.048 117.44ZM674.748 127.66L679.788 136.76C677.921 138.16 675.868 139.233 673.628 139.98C671.481 140.727 669.288 141.1 667.048 141.1L668.168 130.04C669.381 130.04 670.501 129.853 671.528 129.48C672.648 129.013 673.721 128.407 674.748 127.66Z" fill="#2A9D90"/>
</g>
<defs>
<filter id="filter0_i_86_480" x="0" y="33" width="62.874" height="131" filterUnits="userSpaceOnUse" color-interpolation-filters="sRGB">
<feFlood flood-opacity="0" result="BackgroundImageFix"/>
<feBlend mode="normal" in="SourceGraphic" in2="BackgroundImageFix" result="shape"/>
<feColorMatrix in="SourceAlpha" type="matrix" values="0 0 0 0 0 0 0 0 0 0 0 0 0 0 0 0 0 0 127 0" result="hardAlpha"/>
<feOffset dy="4"/>
<feGaussianBlur stdDeviation="5"/>
<feComposite in2="hardAlpha" operator="arithmetic" k2="-1" k3="1"/>
<feColorMatrix type="matrix" values="0 0 0 0 0.152941 0 0 0 0 0.278431 0 0 0 0 0.329412 0 0 0 0.5 0"/>
<feBlend mode="normal" in2="shape" result="effect1_innerShadow_86_480"/>
</filter>
<filter id="filter1_d_86_480" x="27" y="33" width="33.834" height="134.995" filterUnits="userSpaceOnUse" color-interpolation-filters="sRGB">
<feFlood flood-opacity="0" result="BackgroundImageFix"/>
<feColorMatrix in="SourceAlpha" type="matrix" values="0 0 0 0 0 0 0 0 0 0 0 0 0 0 0 0 0 0 127 0" result="hardAlpha"/>
<feOffset dy="4"/>
<feGaussianBlur stdDeviation="2"/>
<feComposite in2="hardAlpha" operator="out"/>
<feColorMatrix type="matrix" values="0 0 0 0 0 0 0 0 0 0 0 0 0 0 0 0 0 0 0.25 0"/>
<feBlend mode="normal" in2="BackgroundImageFix" result="effect1_dropShadow_86_480"/>
<feBlend mode="normal" in="SourceGraphic" in2="effect1_dropShadow_86_480" result="shape"/>
</filter>
<filter id="filter2_i_86_480" x="83.9" y="38.2" width="595.888" height="131.96" filterUnits="userSpaceOnUse" color-interpolation-filters="sRGB">
<feFlood flood-opacity="0" result="BackgroundImageFix"/>
<feBlend mode="normal" in="SourceGraphic" in2="BackgroundImageFix" result="shape"/>
<feColorMatrix in="SourceAlpha" type="matrix" values="0 0 0 0 0 0 0 0 0 0 0 0 0 0 0 0 0 0 127 0" result="hardAlpha"/>
<feOffset dy="4"/>
<feGaussianBlur stdDeviation="2"/>
<feComposite in2="hardAlpha" operator="arithmetic" k2="-1" k3="1"/>
<feColorMatrix type="matrix" values="0 0 0 0 0 0 0 0 0 0 0 0 0 0 0 0 0 0 0.25 0"/>
<feBlend mode="normal" in2="shape" result="effect1_innerShadow_86_480"/>
</filter>
</defs>
</svg>
