<svg width="597" height="129" viewBox="0 0 597 129" fill="none" xmlns="http://www.w3.org/2000/svg">
<g filter="url(#filter0_i_78_253)">
<path d="M37.86 82.8C37.86 80.4667 37.02 78.5533 35.34 77.06C33.66 75.4733 31.4667 74.0733 28.76 72.86C26.1467 71.5533 23.3467 70.2467 20.36 68.94C17.4667 67.6333 14.6667 66.14 11.96 64.46C9.34667 62.6867 7.2 60.4933 5.52 57.88C3.84 55.1733 3 51.9067 3 48.08C3 48.08 3.37333 48.08 4.12 48.08C4.96 48.08 5.98667 48.08 7.2 48.08C8.50667 48.08 9.76667 48.08 10.98 48.08C12.1933 48.08 13.22 48.08 14.06 48.08C14.9 48.08 15.32 48.08 15.32 48.08C15.32 50.4133 16.16 52.3733 17.84 53.96C19.52 55.4533 21.6667 56.8067 24.28 58.02C26.9867 59.2333 29.8333 60.54 32.82 61.94C35.8067 63.2467 38.6067 64.7867 41.22 66.56C43.8333 68.3333 45.98 70.5267 47.66 73.14C49.4333 75.66 50.32 78.88 50.32 82.8C50.32 82.8 49.9 82.8 49.06 82.8C48.22 82.8 47.1467 82.8 45.84 82.8C44.6267 82.8 43.4133 82.8 42.2 82.8C40.9867 82.8 39.96 82.8 39.12 82.8C38.28 82.8 37.86 82.8 37.86 82.8ZM25.96 103.1V92.04C29.4133 92.04 32.26 91.2 34.5 89.52C36.74 87.7467 37.86 85.5067 37.86 82.8H50.32C50.32 86.72 49.2467 90.22 47.1 93.3C45.0467 96.38 42.2 98.8067 38.56 100.58C34.92 102.26 30.72 103.1 25.96 103.1ZM3 48.08C3 44.2533 3.93333 40.8467 5.8 37.86C7.76 34.78 10.4667 32.4 13.92 30.72C17.3733 28.9467 21.2 28.06 25.4 28.06V39.12C22.5067 39.12 20.08 39.96 18.12 41.64C16.2533 43.32 15.32 45.4667 15.32 48.08H3ZM12.66 79.86C13.1267 83.9667 14.62 87.0467 17.14 89.1C19.66 91.06 22.6 92.04 25.96 92.04V103.1C21.6667 103.1 17.7 102.213 14.06 100.44C10.42 98.6667 7.43333 96.1933 5.1 93.02C2.86 89.8467 1.46 86.2533 0.9 82.24L12.66 79.86ZM38.56 51.3C38.0933 47.1 36.6 44.02 34.08 42.06C31.6533 40.1 28.76 39.12 25.4 39.12V28.06C29.7867 28.06 33.7533 28.9467 37.3 30.72C40.8467 32.4933 43.7867 34.9667 46.12 38.14C48.4533 41.22 49.9 44.8133 50.46 48.92L38.56 51.3ZM103.926 101V52.84H116.666V101H103.926ZM86.8458 103.1L87.8258 92.6C91.1858 92.6 94.0324 91.76 96.3658 90.08C98.7924 88.4 100.659 85.9267 101.966 82.66C103.272 79.3933 103.926 75.52 103.926 71.04L110.226 70.76C110.226 77.1067 109.199 82.7067 107.146 87.56C105.092 92.4133 102.292 96.24 98.7458 99.04C95.2924 101.747 91.3258 103.1 86.8458 103.1ZM86.8458 103.1C82.6458 103.1 78.8191 102.12 75.3658 100.16C71.9124 98.2 69.1591 95.54 67.1058 92.18C65.0524 88.7267 64.0258 84.9 64.0258 80.7L76.0658 80.28C76.0658 83.8267 77.2324 86.7667 79.5658 89.1C81.9924 91.4333 84.7458 92.6 87.8258 92.6L86.8458 103.1ZM64.0258 80.7C64.0258 76.3133 65.0991 72.4867 67.2458 69.22C69.4858 65.86 72.4724 63.2 76.2058 61.24C79.9391 59.28 84.1858 58.3 88.9458 58.3L89.6458 68.1C85.7258 68.1 82.4591 69.2667 79.8458 71.6C77.3258 73.84 76.0658 76.7333 76.0658 80.28L64.0258 80.7ZM89.6458 68.1L88.9458 58.3H110.506V68.1H89.6458ZM103.926 71.04V52.98H110.226V70.76L103.926 71.04ZM116.666 53.12H103.926C103.926 49.0133 102.666 45.6533 100.146 43.04C97.7191 40.4267 94.5458 39.12 90.6258 39.12V28.2C95.6658 28.2 100.099 29.2733 103.926 31.42C107.846 33.5667 110.926 36.5533 113.166 40.38C115.499 44.1133 116.666 48.36 116.666 53.12ZM77.4658 51.44L65.7058 49.06C66.2658 44.86 67.6658 41.22 69.9058 38.14C72.2391 35.06 75.1791 32.6333 78.7258 30.86C82.3658 29.0867 86.3791 28.2 90.7658 28.2V39.12C87.3124 39.12 84.3258 40.1467 81.8058 42.2C79.3791 44.16 77.9324 47.24 77.4658 51.44ZM170.97 103.52V30.3H183.71V103.52H170.97ZM131.63 76.64V52.84H144.37V76.64H131.63ZM144.37 52.84H131.63C131.63 48.1733 132.61 43.9733 134.57 40.24C136.53 36.5067 139.19 33.5667 142.55 31.42C146.004 29.2733 149.924 28.2 154.31 28.2L157.53 39.54C153.704 39.54 150.53 40.8 148.01 43.32C145.584 45.7467 144.37 48.92 144.37 52.84ZM176.57 53.12H170.97C170.97 49.1067 169.71 45.84 167.19 43.32C164.67 40.8 161.45 39.54 157.53 39.54L154.31 28.2C158.51 28.2 162.29 29.2733 165.65 31.42C169.104 33.5667 171.764 36.5533 173.63 40.38C175.59 44.1133 176.57 48.36 176.57 53.12ZM144.37 76.64C144.37 80.56 145.584 83.78 148.01 86.3C150.53 88.7267 153.704 89.94 157.53 89.94L154.31 101.28C149.924 101.28 146.004 100.207 142.55 98.06C139.19 95.9133 136.53 92.9733 134.57 89.24C132.61 85.5067 131.63 81.3067 131.63 76.64H144.37ZM176.57 76.22C176.57 80.98 175.59 85.2733 173.63 89.1C171.764 92.8333 169.104 95.82 165.65 98.06C162.29 100.207 158.51 101.28 154.31 101.28L157.53 89.94C161.45 89.94 164.67 88.68 167.19 86.16C169.71 83.64 170.97 80.3267 170.97 76.22H176.57ZM183.71 103.1C183.71 107.86 182.59 112.107 180.35 115.84C178.11 119.667 175.03 122.653 171.11 124.8C167.19 127.04 162.757 128.16 157.81 128.16V117.1C161.637 117.1 164.764 115.747 167.19 113.04C169.71 110.427 170.97 107.113 170.97 103.1H183.71ZM144.51 104.92C144.977 109.027 146.47 112.06 148.99 114.02C151.51 116.073 154.45 117.1 157.81 117.1V128.16C153.517 128.16 149.55 127.273 145.91 125.5C142.27 123.727 139.284 121.253 136.95 118.08C134.71 114.907 133.31 111.313 132.75 107.3L144.51 104.92ZM203.399 69.5V60.4H251.139V69.5H203.399ZM225.099 103.24V92.18H225.799V103.24H225.099ZM199.339 75.94V55.36H212.079V75.94H199.339ZM238.399 60.4V53.12H251.139V60.4H238.399ZM251.139 53.12H238.399C238.399 49.0133 237.139 45.6533 234.619 43.04C232.192 40.4267 229.019 39.12 225.099 39.12V28.2C230.139 28.2 234.572 29.2733 238.399 31.42C242.319 33.5667 245.399 36.5533 247.639 40.38C249.972 44.1133 251.139 48.36 251.139 53.12ZM238.959 80L250.859 82.38C250.299 86.3933 248.852 89.9867 246.519 93.16C244.186 96.3333 241.246 98.8067 237.699 100.58C234.152 102.353 230.186 103.24 225.799 103.24V92.18C229.159 92.18 232.052 91.2 234.479 89.24C236.999 87.1867 238.492 84.1067 238.959 80ZM199.339 55.5C199.339 50.18 200.459 45.5133 202.699 41.5C205.032 37.3933 208.112 34.1733 211.939 31.84C215.859 29.4133 220.292 28.2 225.239 28.2V39.12C221.132 39.12 217.912 40.5667 215.579 43.46C213.246 46.26 212.079 50.2733 212.079 55.5H199.339ZM199.339 75.94H212.079C212.079 81.0733 213.246 85.0867 215.579 87.98C217.912 90.78 221.132 92.18 225.239 92.18V103.24C220.292 103.24 215.859 102.073 211.939 99.74C208.112 97.3133 205.032 94.0467 202.699 89.94C200.459 85.8333 199.339 81.1667 199.339 75.94ZM266.889 30.44V2.29999H279.629V30.44H266.889ZM279.629 101H266.889V30.3H279.629V101ZM318.969 78.46H306.229V52.84H318.969V78.46ZM306.229 52.84C306.229 48.92 305.016 45.7467 302.589 43.32C300.162 40.8 297.036 39.54 293.209 39.54L296.429 28.2C300.722 28.2 304.549 29.2733 307.909 31.42C311.362 33.5667 314.069 36.5067 316.029 40.24C317.989 43.9733 318.969 48.1733 318.969 52.84H306.229ZM274.029 53.12C274.029 48.36 275.009 44.1133 276.969 40.38C278.929 36.5533 281.589 33.5667 284.949 31.42C288.309 29.2733 292.136 28.2 296.429 28.2L293.209 39.54C289.196 39.54 285.929 40.8 283.409 43.32C280.889 45.84 279.629 49.1067 279.629 53.12H274.029ZM306.229 78.46H318.969C318.969 83.1267 317.989 87.3267 316.029 91.06C314.069 94.7933 311.362 97.7333 307.909 99.88C304.549 102.027 300.722 103.1 296.429 103.1L293.209 91.76C297.036 91.76 300.162 90.5467 302.589 88.12C305.016 85.6 306.229 82.38 306.229 78.46ZM274.029 78.04H279.629C279.629 82.1467 280.889 85.46 283.409 87.98C285.929 90.5 289.196 91.76 293.209 91.76L296.429 103.1C292.136 103.1 288.309 102.027 284.949 99.88C281.589 97.64 278.929 94.6533 276.969 90.92C275.009 87.0933 274.029 82.8 274.029 78.04ZM335.998 101V30.3H348.738V101H335.998ZM342.998 53.68C342.998 48.92 343.791 44.6733 345.378 40.94C346.964 37.1133 349.111 34.1267 351.818 31.98C354.618 29.8333 357.698 28.76 361.058 28.76L359.938 40.66C356.671 40.66 353.964 41.92 351.818 44.44C349.764 46.8667 348.738 49.9467 348.738 53.68H342.998ZM368.338 43.88C367.218 42.9467 365.864 42.2 364.278 41.64C362.784 40.9867 361.338 40.66 359.938 40.66L361.058 28.76C363.204 28.76 365.304 29.18 367.358 30.02C369.411 30.7667 371.184 31.84 372.678 33.24L368.338 43.88ZM386.819 101V30.3H399.559V101H386.819ZM393.119 20.92C390.785 20.92 388.825 20.1267 387.239 18.54C385.652 16.9533 384.859 14.9933 384.859 12.66C384.859 10.3267 385.652 8.36666 387.239 6.77999C388.825 5.09999 390.785 4.25999 393.119 4.25999C395.452 4.25999 397.412 5.09999 398.999 6.77999C400.679 8.36666 401.519 10.3267 401.519 12.66C401.519 14.9933 400.679 16.9533 398.999 18.54C397.412 20.1267 395.452 20.92 393.119 20.92ZM457.451 103.52V30.3H470.191V103.52H457.451ZM418.111 76.64V52.84H430.851V76.64H418.111ZM430.851 52.84H418.111C418.111 48.1733 419.091 43.9733 421.051 40.24C423.011 36.5067 425.671 33.5667 429.031 31.42C432.484 29.2733 436.404 28.2 440.791 28.2L444.011 39.54C440.184 39.54 437.011 40.8 434.491 43.32C432.064 45.7467 430.851 48.92 430.851 52.84ZM463.051 53.12H457.451C457.451 49.1067 456.191 45.84 453.671 43.32C451.151 40.8 447.931 39.54 444.011 39.54L440.791 28.2C444.991 28.2 448.771 29.2733 452.131 31.42C455.584 33.5667 458.244 36.5533 460.111 40.38C462.071 44.1133 463.051 48.36 463.051 53.12ZM430.851 76.64C430.851 80.56 432.064 83.78 434.491 86.3C437.011 88.7267 440.184 89.94 444.011 89.94L440.791 101.28C436.404 101.28 432.484 100.207 429.031 98.06C425.671 95.9133 423.011 92.9733 421.051 89.24C419.091 85.5067 418.111 81.3067 418.111 76.64H430.851ZM463.051 76.22C463.051 80.98 462.071 85.2733 460.111 89.1C458.244 92.8333 455.584 95.82 452.131 98.06C448.771 100.207 444.991 101.28 440.791 101.28L444.011 89.94C447.931 89.94 451.151 88.68 453.671 86.16C456.191 83.64 457.451 80.3267 457.451 76.22H463.051ZM470.191 103.1C470.191 107.86 469.071 112.107 466.831 115.84C464.591 119.667 461.511 122.653 457.591 124.8C453.671 127.04 449.238 128.16 444.291 128.16V117.1C448.118 117.1 451.244 115.747 453.671 113.04C456.191 110.427 457.451 107.113 457.451 103.1H470.191ZM430.991 104.92C431.458 109.027 432.951 112.06 435.471 114.02C437.991 116.073 440.931 117.1 444.291 117.1V128.16C439.998 128.16 436.031 127.273 432.391 125.5C428.751 123.727 425.764 121.253 423.431 118.08C421.191 114.907 419.791 111.313 419.231 107.3L430.991 104.92ZM489.32 101V30.3H502.06V101H489.32ZM528.66 101V52.84H541.4V101H528.66ZM528.66 52.84C528.66 48.92 527.446 45.7467 525.02 43.32C522.593 40.8 519.466 39.54 515.64 39.54L518.86 28.2C523.153 28.2 526.98 29.2733 530.34 31.42C533.793 33.5667 536.5 36.5067 538.46 40.24C540.42 43.9733 541.4 48.1733 541.4 52.84H528.66ZM496.46 53.12C496.46 48.36 497.44 44.1133 499.4 40.38C501.36 36.5533 504.02 33.5667 507.38 31.42C510.74 29.2733 514.566 28.2 518.86 28.2L515.64 39.54C511.626 39.54 508.36 40.8 505.84 43.32C503.32 45.84 502.06 49.1067 502.06 53.12H496.46ZM489.32 101V0.199996H502.06V101H489.32ZM563.048 79.58V2.16L575.788 2.29999V79.58H563.048ZM554.928 40.8V30.3H593.428V40.8H554.928ZM563.048 79.44H575.788C575.788 82.1467 576.161 84.4333 576.908 86.3C577.655 88.1667 578.728 89.6133 580.128 90.64C581.528 91.5733 583.208 92.04 585.168 92.04L584.048 103.1C577.515 103.1 572.381 101.047 568.648 96.94C564.915 92.74 563.048 86.9067 563.048 79.44ZM591.748 89.66L596.788 98.76C594.921 100.16 592.868 101.233 590.628 101.98C588.481 102.727 586.288 103.1 584.048 103.1L585.168 92.04C586.381 92.04 587.501 91.8533 588.528 91.48C589.648 91.0133 590.721 90.4067 591.748 89.66Z" fill="#2A9D90"/>
</g>
<defs>
<filter id="filter0_i_78_253" x="0.900024" y="0.199951" width="595.888" height="131.96" filterUnits="userSpaceOnUse" color-interpolation-filters="sRGB">
<feFlood flood-opacity="0" result="BackgroundImageFix"/>
<feBlend mode="normal" in="SourceGraphic" in2="BackgroundImageFix" result="shape"/>
<feColorMatrix in="SourceAlpha" type="matrix" values="0 0 0 0 0 0 0 0 0 0 0 0 0 0 0 0 0 0 127 0" result="hardAlpha"/>
<feOffset dy="4"/>
<feGaussianBlur stdDeviation="2"/>
<feComposite in2="hardAlpha" operator="arithmetic" k2="-1" k3="1"/>
<feColorMatrix type="matrix" values="0 0 0 0 0 0 0 0 0 0 0 0 0 0 0 0 0 0 0.25 0"/>
<feBlend mode="normal" in2="shape" result="effect1_innerShadow_78_253"/>
</filter>
</defs>
</svg>
